# xmcd CD database file
#
# Track frame offsets:
#	150
#	19145
#	40924
#	53208
#	65651
#	89716
#	100899
#	112314
#	125871
#	138978
#	149763
#	158527
#	178332
#	195464
#	209573
#	227520
#	245222
#	259584
#	273764
#	291004
#	308707
#	321376
#	333656
#
# Disc length: 4686 seconds
#
# Revision: 0
# Processed by: cddbd v1.5.1PL0 Copyright (c) Steve Scherf et al.
# Submitted via: CDex 1.51
#
DISCID=71124c17
DTITLE=Chico Buarque - Selecao 02
DYEAR=1990
DGENRE=MPB
TTITLE0=Fado Tropical
TTITLE1=Fantasia
TTITLE2=Feijoada Completa
TTITLE3=Flor da Idade
TTITLE4=Geni e o Zepelim
TTITLE5=Gente Humilde- e Garoto e Vinicius
TTITLE6=Gota dAgua
TTITLE7=Hino de Duran- e A Cor do Som
TTITLE8=Homenagem ao Malandro
TTITLE9=Joao e Maria-e Nara
TTITLE10=Mambembe
TTITLE11=Meu Caro Amigo
TTITLE12=Mil Perdoes
TTITLE13=Morena de Angola
TTITLE14=Nao Existe Pecado e Boi Voador
TTITLE15=Nao Sonho Mais
TTITLE16=Nicanor
TTITLE17=Noite dos Mascarados- e Elis
TTITLE18=O Cio da Terra-e Milton Nasc
TTITLE19=O Meu Guri
TTITLE20=O Que Sera (A Flor da Terra)
TTITLE21=Ole, Ola- e Betania
TTITLE22=Olha Maria- Tom e Vinicius
EXTD=YEAR: 1990
EXTT0=
EXTT1=
EXTT2=
EXTT3=
EXTT4=
EXTT5=
EXTT6=
EXTT7=
EXTT8=
EXTT9=
EXTT10=
EXTT11=
EXTT12=
EXTT13=
EXTT14=
EXTT15=
EXTT16=
EXTT17=
EXTT18=
EXTT19=
EXTT20=
EXTT21=
EXTT22=
PLAYORDER=
